<!--?xml version="1.0" encoding="UTF-8"?-->
<svg xmlns="http://www.w3.org/2000/svg" viewBox="0 0 100 100" fill="none">

  <defs>
    <linearGradient id="appCG" x1="0%" y1="0%" x2="100%" y2="100%">
      <stop offset="0%" stop-color="#7c9a6e"></stop>
      <stop offset="100%" stop-color="#4a6640"></stop>
    </linearGradient>
  </defs>

  <!-- Background Circle -->
  <circle cx="50" cy="50" r="44" fill="url(#appCG)"></circle>
  <circle cx="50" cy="50" r="44" fill="none" stroke="rgba(255,255,255,0.2)" stroke-width="1.5"></circle>

  <!-- Lotus Shape -->
  <path d="M50 68 Q42 73 38 80 Q44 75 50 73 Q56 75 62 80 Q58 73 50 68Z" fill="#e5b029" opacity="0.9"></path>
  <path d="M50 68 Q35 72 30 78 Q38 73 50 71Z" fill="#e5b029" opacity="0.5"></path>
  <path d="M50 68 Q65 72 70 78 Q62 73 50 71Z" fill="#e5b029" opacity="0.5"></path>

  <!-- Human Figure -->
  <circle cx="50" cy="28" r="7" fill="rgba(255,255,255,0.92)"></circle>
  <line x1="50" y1="35" x2="50" y2="56" stroke="rgba(255,255,255,0.92)" stroke-width="2.5" stroke-linecap="round"></line>
  <path d="M50 42 Q40 40 36 44" stroke="rgba(255,255,255,0.85)" stroke-width="2.5" stroke-linecap="round" fill="none"></path>
  <path d="M50 42 Q60 40 64 44" stroke="rgba(255,255,255,0.85)" stroke-width="2.5" stroke-linecap="round" fill="none"></path>
  <path d="M50 56 Q42 60 38 66" stroke="rgba(255,255,255,0.85)" stroke-width="2.5" stroke-linecap="round" fill="none"></path>
  <path d="M50 56 Q58 60 62 66" stroke="rgba(255,255,255,0.85)" stroke-width="2.5" stroke-linecap="round" fill="none"></path>

</svg>